<mxfile host="app.diagrams.net" modified="2024-06-25T17:28:46.745Z" agent="Mozilla/5.0 (Windows NT 10.0; Win64; x64; rv:127.0) Gecko/20100101 Firefox/127.0" etag="IKemyCAseUGjMAJ7ce6H" version="24.6.2" type="onedrive">
  <diagram name="Seite-1" id="1BPBs3GrA8giSS3eIHd0">
    <mxGraphModel grid="1" page="1" gridSize="10" guides="1" tooltips="1" connect="1" arrows="1" fold="1" pageScale="1" pageWidth="827" pageHeight="1169" math="0" shadow="0">
      <root>
        <mxCell id="0" />
        <mxCell id="1" parent="0" />
        <mxCell id="0oEBU2UaBOYINvg3kdbf-1" value="&lt;div align=&quot;left&quot;&gt;«Cloud»&lt;/div&gt;&lt;div align=&quot;left&quot;&gt;Azure Cloud&lt;/div&gt;&lt;div align=&quot;left&quot;&gt;Region: germanywestcentral&lt;/div&gt;&lt;div align=&quot;left&quot;&gt;Resource Group: rg_pet&lt;br&gt;&lt;/div&gt;&lt;div align=&quot;left&quot;&gt;Shared Availability Set&lt;br&gt;&lt;/div&gt;" style="shape=cube;whiteSpace=wrap;html=1;boundedLbl=1;backgroundOutline=1;darkOpacity=0.05;darkOpacity2=0.1;align=left;verticalAlign=top;movable=1;resizable=1;rotatable=1;deletable=1;editable=1;locked=0;connectable=1;spacingLeft=10;" vertex="1" parent="1">
          <mxGeometry x="-340" y="60" width="1480" height="850" as="geometry" />
        </mxCell>
        <mxCell id="0oEBU2UaBOYINvg3kdbf-15" value="" style="ellipse;shape=cloud;whiteSpace=wrap;html=1;flipV=0;flipH=0;direction=east;" vertex="1" parent="1">
          <mxGeometry x="-180" y="10" width="1350" height="930" as="geometry" />
        </mxCell>
        <mxCell id="0oEBU2UaBOYINvg3kdbf-9" value="&lt;div&gt;«Load Balancer»&lt;/div&gt;&lt;div&gt;Load Balancer&lt;br&gt;&lt;/div&gt;" style="shape=cube;whiteSpace=wrap;html=1;boundedLbl=1;backgroundOutline=1;darkOpacity=0.05;darkOpacity2=0.1;verticalAlign=top;" vertex="1" parent="1">
          <mxGeometry x="-230" y="380" width="210" height="390" as="geometry" />
        </mxCell>
        <mxCell id="0oEBU2UaBOYINvg3kdbf-12" value="&lt;div&gt;«Linux VM»&lt;/div&gt;&lt;div&gt;vm-pet0 (Master Node, Control Plane, Worker Node)&lt;br&gt;&lt;/div&gt;" style="shape=cube;whiteSpace=wrap;html=1;boundedLbl=1;backgroundOutline=1;darkOpacity=0.05;darkOpacity2=0.1;verticalAlign=top;" vertex="1" parent="1">
          <mxGeometry x="260" y="222.5" width="680" height="290" as="geometry" />
        </mxCell>
        <mxCell id="0oEBU2UaBOYINvg3kdbf-16" value="«Rule»&lt;br&gt;SSH-VM0" style="html=1;whiteSpace=wrap;" vertex="1" parent="1">
          <mxGeometry x="-170" y="460" width="110" height="50" as="geometry" />
        </mxCell>
        <mxCell id="0oEBU2UaBOYINvg3kdbf-127" value="&lt;div&gt;«Probe»&lt;/div&gt;&lt;div&gt;Health Probe&lt;br&gt;&lt;/div&gt;" style="shape=cube;whiteSpace=wrap;html=1;boundedLbl=1;backgroundOutline=1;darkOpacity=0.05;darkOpacity2=0.1;verticalAlign=top;" vertex="1" parent="1">
          <mxGeometry x="-130" y="330" width="110" height="70" as="geometry" />
        </mxCell>
        <mxCell id="0oEBU2UaBOYINvg3kdbf-17" value="«Rule»&lt;br&gt;SSH-VM1" style="html=1;whiteSpace=wrap;" vertex="1" parent="1">
          <mxGeometry x="-170" y="534.5" width="110" height="50" as="geometry" />
        </mxCell>
        <mxCell id="0oEBU2UaBOYINvg3kdbf-18" value="&lt;div&gt;«Rule»&lt;/div&gt;&lt;div&gt;Produktservice&lt;/div&gt;" style="html=1;whiteSpace=wrap;" vertex="1" parent="1">
          <mxGeometry x="-170" y="612.5" width="110" height="50" as="geometry" />
        </mxCell>
        <mxCell id="0oEBU2UaBOYINvg3kdbf-19" value="&lt;div&gt;«Rule»&lt;/div&gt;&lt;div&gt;&lt;div&gt;Bestellservice&lt;/div&gt;&lt;/div&gt;" style="html=1;whiteSpace=wrap;" vertex="1" parent="1">
          <mxGeometry x="-170" y="690" width="110" height="50" as="geometry" />
        </mxCell>
        <mxCell id="0oEBU2UaBOYINvg3kdbf-11" value="&lt;div&gt;«Network Interface»&lt;/div&gt;&lt;div&gt;acctni0&lt;br&gt;&lt;/div&gt;" style="shape=cube;whiteSpace=wrap;html=1;boundedLbl=1;backgroundOutline=1;darkOpacity=0.05;darkOpacity2=0.1;verticalAlign=top;size=20;" vertex="1" parent="1">
          <mxGeometry x="170" y="222.5" width="110" height="87.5" as="geometry" />
        </mxCell>
        <mxCell id="0oEBU2UaBOYINvg3kdbf-23" value="«Virtual Disk»&lt;div&gt;OS&lt;/div&gt;" style="shape=cylinder3;whiteSpace=wrap;html=1;boundedLbl=1;backgroundOutline=1;size=6.695652173913061;" vertex="1" parent="1">
          <mxGeometry x="860" y="295" width="63" height="65" as="geometry" />
        </mxCell>
        <mxCell id="0oEBU2UaBOYINvg3kdbf-24" value="«Virtual Disk»&lt;div&gt;Data&lt;/div&gt;" style="shape=cylinder3;whiteSpace=wrap;html=1;boundedLbl=1;backgroundOutline=1;size=6.695652173913061;" vertex="1" parent="1">
          <mxGeometry x="860" y="365" width="63" height="65" as="geometry" />
        </mxCell>
        <mxCell id="0oEBU2UaBOYINvg3kdbf-26" value="&lt;div&gt;«Config»&lt;/div&gt;&lt;div&gt;Public IP&lt;br&gt;&lt;/div&gt;" style="shape=cube;whiteSpace=wrap;html=1;boundedLbl=1;backgroundOutline=1;darkOpacity=0.05;darkOpacity2=0.1;verticalAlign=top;" vertex="1" parent="1">
          <mxGeometry x="-230" y="330" width="120" height="70" as="geometry" />
        </mxCell>
        <mxCell id="0oEBU2UaBOYINvg3kdbf-34" value="" style="group" vertex="1" connectable="0" parent="1">
          <mxGeometry x="-720" y="600" width="210" height="122.5" as="geometry" />
        </mxCell>
        <mxCell id="0oEBU2UaBOYINvg3kdbf-27" value="User" style="shape=umlActor;verticalLabelPosition=bottom;verticalAlign=top;html=1;outlineConnect=0;" vertex="1" parent="0oEBU2UaBOYINvg3kdbf-34">
          <mxGeometry y="31.25" width="30" height="60" as="geometry" />
        </mxCell>
        <mxCell id="0oEBU2UaBOYINvg3kdbf-28" value="&lt;div&gt;«Device»&lt;/div&gt;&lt;div&gt;User-PC&lt;/div&gt;" style="shape=cube;whiteSpace=wrap;html=1;boundedLbl=1;backgroundOutline=1;darkOpacity=0.05;darkOpacity2=0.1;verticalAlign=top;" vertex="1" parent="0oEBU2UaBOYINvg3kdbf-34">
          <mxGeometry x="50" width="160" height="122.5" as="geometry" />
        </mxCell>
        <mxCell id="0oEBU2UaBOYINvg3kdbf-32" value="&lt;div&gt;«Browser»&lt;/div&gt;&lt;div&gt;Browser&lt;/div&gt;" style="html=1;whiteSpace=wrap;" vertex="1" parent="0oEBU2UaBOYINvg3kdbf-34">
          <mxGeometry x="90.00000000000023" y="62.5" width="110" height="50" as="geometry" />
        </mxCell>
        <mxCell id="0oEBU2UaBOYINvg3kdbf-37" value="" style="endArrow=none;html=1;rounded=0;exitX=1;exitY=0.5;exitDx=0;exitDy=0;entryX=0;entryY=0;entryDx=20;entryDy=80;entryPerimeter=0;endFill=0;" edge="1" parent="1" source="0oEBU2UaBOYINvg3kdbf-7" target="0oEBU2UaBOYINvg3kdbf-39">
          <mxGeometry width="50" height="50" relative="1" as="geometry">
            <mxPoint x="-500" y="520" as="sourcePoint" />
            <mxPoint x="-330" y="460" as="targetPoint" />
            <Array as="points">
              <mxPoint x="-370" y="400" />
            </Array>
          </mxGeometry>
        </mxCell>
        <mxCell id="0oEBU2UaBOYINvg3kdbf-44" value="HTTP" style="edgeLabel;html=1;align=center;verticalAlign=middle;resizable=0;points=[];" vertex="1" connectable="0" parent="0oEBU2UaBOYINvg3kdbf-37">
          <mxGeometry x="-0.5083" relative="1" as="geometry">
            <mxPoint x="42" y="-2" as="offset" />
          </mxGeometry>
        </mxCell>
        <mxCell id="0oEBU2UaBOYINvg3kdbf-39" value="&lt;div&gt;«API»&lt;/div&gt;&lt;div&gt;Azure Resource Manager API&lt;br&gt;&lt;/div&gt;" style="shape=cube;whiteSpace=wrap;html=1;boundedLbl=1;backgroundOutline=1;darkOpacity=0.05;darkOpacity2=0.1;verticalAlign=top;" vertex="1" parent="1">
          <mxGeometry x="-390" y="200" width="120" height="80" as="geometry" />
        </mxCell>
        <mxCell id="0oEBU2UaBOYINvg3kdbf-42" value="" style="endArrow=none;html=1;rounded=0;exitX=1;exitY=0.5;exitDx=0;exitDy=0;entryX=0;entryY=0;entryDx=10;entryDy=70;entryPerimeter=0;endFill=0;" edge="1" parent="1" source="0oEBU2UaBOYINvg3kdbf-6" target="0oEBU2UaBOYINvg3kdbf-39">
          <mxGeometry width="50" height="50" relative="1" as="geometry">
            <mxPoint x="-560" y="330" as="sourcePoint" />
            <mxPoint x="-510" y="280" as="targetPoint" />
          </mxGeometry>
        </mxCell>
        <mxCell id="0oEBU2UaBOYINvg3kdbf-43" value="HTTP" style="edgeLabel;html=1;align=center;verticalAlign=middle;resizable=0;points=[];" vertex="1" connectable="0" parent="0oEBU2UaBOYINvg3kdbf-42">
          <mxGeometry x="-0.0547" y="1" relative="1" as="geometry">
            <mxPoint as="offset" />
          </mxGeometry>
        </mxCell>
        <mxCell id="0oEBU2UaBOYINvg3kdbf-8" value="Entwickler" style="shape=umlActor;verticalLabelPosition=bottom;verticalAlign=top;html=1;outlineConnect=0;" vertex="1" parent="1">
          <mxGeometry x="-720" y="305" width="30" height="60" as="geometry" />
        </mxCell>
        <mxCell id="0oEBU2UaBOYINvg3kdbf-5" value="&lt;div&gt;«Device»&lt;/div&gt;&lt;div&gt;Entwickler-PC&lt;/div&gt;" style="shape=cube;whiteSpace=wrap;html=1;boundedLbl=1;backgroundOutline=1;darkOpacity=0.05;darkOpacity2=0.1;verticalAlign=top;" vertex="1" parent="1">
          <mxGeometry x="-670" y="240" width="160" height="280" as="geometry" />
        </mxCell>
        <mxCell id="0oEBU2UaBOYINvg3kdbf-6" value="&lt;div&gt;«Program»&lt;/div&gt;&lt;div&gt;Azure CLI&lt;/div&gt;" style="html=1;whiteSpace=wrap;" vertex="1" parent="1">
          <mxGeometry x="-633" y="305" width="110" height="50" as="geometry" />
        </mxCell>
        <mxCell id="0oEBU2UaBOYINvg3kdbf-7" value="&lt;div&gt;«Program»&lt;/div&gt;&lt;div&gt;Terraform&lt;/div&gt;" style="html=1;whiteSpace=wrap;" vertex="1" parent="1">
          <mxGeometry x="-633" y="375" width="110" height="50" as="geometry" />
        </mxCell>
        <mxCell id="0oEBU2UaBOYINvg3kdbf-40" value="" style="endArrow=none;html=1;rounded=0;curved=1;exitX=1;exitY=0.25;exitDx=0;exitDy=0;" edge="1" parent="1" source="0oEBU2UaBOYINvg3kdbf-7" target="0oEBU2UaBOYINvg3kdbf-6">
          <mxGeometry width="50" height="50" relative="1" as="geometry">
            <mxPoint x="-520" y="380" as="sourcePoint" />
            <mxPoint x="-470" y="330" as="targetPoint" />
            <Array as="points">
              <mxPoint x="-400" y="360" />
            </Array>
          </mxGeometry>
        </mxCell>
        <mxCell id="0oEBU2UaBOYINvg3kdbf-41" value="CLI-Call" style="edgeLabel;html=1;align=center;verticalAlign=middle;resizable=0;points=[];" vertex="1" connectable="0" parent="0oEBU2UaBOYINvg3kdbf-40">
          <mxGeometry x="0.5022" y="10" relative="1" as="geometry">
            <mxPoint x="3" y="-9" as="offset" />
          </mxGeometry>
        </mxCell>
        <mxCell id="0oEBU2UaBOYINvg3kdbf-45" value="&lt;div&gt;«Program»&lt;/div&gt;&lt;div&gt;SSH-Client&lt;/div&gt;" style="html=1;whiteSpace=wrap;" vertex="1" parent="1">
          <mxGeometry x="-632.9999999999998" y="440" width="110" height="50" as="geometry" />
        </mxCell>
        <mxCell id="0oEBU2UaBOYINvg3kdbf-47" value="" style="endArrow=none;html=1;rounded=0;endFill=0;" edge="1" parent="1" source="0oEBU2UaBOYINvg3kdbf-45" target="0oEBU2UaBOYINvg3kdbf-52">
          <mxGeometry width="50" height="50" relative="1" as="geometry">
            <mxPoint x="-300" y="470" as="sourcePoint" />
            <mxPoint x="-440" y="480" as="targetPoint" />
          </mxGeometry>
        </mxCell>
        <mxCell id="0oEBU2UaBOYINvg3kdbf-48" value="&lt;div&gt;SSH&lt;/div&gt;" style="edgeLabel;html=1;align=center;verticalAlign=middle;resizable=0;points=[];" vertex="1" connectable="0" parent="0oEBU2UaBOYINvg3kdbf-47">
          <mxGeometry x="-0.1135" y="-1" relative="1" as="geometry">
            <mxPoint x="-6" y="-3" as="offset" />
          </mxGeometry>
        </mxCell>
        <mxCell id="0oEBU2UaBOYINvg3kdbf-49" value="" style="endArrow=none;html=1;rounded=0;" edge="1" parent="1" source="0oEBU2UaBOYINvg3kdbf-32" target="0oEBU2UaBOYINvg3kdbf-59">
          <mxGeometry width="50" height="50" relative="1" as="geometry">
            <mxPoint x="-270" y="580" as="sourcePoint" />
            <mxPoint x="-370" y="710" as="targetPoint" />
          </mxGeometry>
        </mxCell>
        <mxCell id="0oEBU2UaBOYINvg3kdbf-65" value="HTTP" style="edgeLabel;html=1;align=center;verticalAlign=middle;resizable=0;points=[];" vertex="1" connectable="0" parent="0oEBU2UaBOYINvg3kdbf-49">
          <mxGeometry x="-0.1104" relative="1" as="geometry">
            <mxPoint as="offset" />
          </mxGeometry>
        </mxCell>
        <mxCell id="0oEBU2UaBOYINvg3kdbf-51" value="" style="endArrow=none;html=1;rounded=0;" edge="1" parent="1" source="0oEBU2UaBOYINvg3kdbf-32" target="0oEBU2UaBOYINvg3kdbf-57">
          <mxGeometry width="50" height="50" relative="1" as="geometry">
            <mxPoint x="-440" y="660" as="sourcePoint" />
            <mxPoint x="-220" y="630" as="targetPoint" />
          </mxGeometry>
        </mxCell>
        <mxCell id="0oEBU2UaBOYINvg3kdbf-64" value="HTTP" style="edgeLabel;html=1;align=center;verticalAlign=middle;resizable=0;points=[];" vertex="1" connectable="0" parent="0oEBU2UaBOYINvg3kdbf-51">
          <mxGeometry x="-0.0707" relative="1" as="geometry">
            <mxPoint x="-1" y="-3" as="offset" />
          </mxGeometry>
        </mxCell>
        <mxCell id="0oEBU2UaBOYINvg3kdbf-52" value="" style="rounded=0;whiteSpace=wrap;html=1;" vertex="1" parent="1">
          <mxGeometry x="-345" y="465" width="30" height="30" as="geometry" />
        </mxCell>
        <mxCell id="0oEBU2UaBOYINvg3kdbf-53" value="" style="endArrow=none;html=1;rounded=0;entryX=0;entryY=0.5;entryDx=0;entryDy=0;endFill=0;" edge="1" parent="1" source="0oEBU2UaBOYINvg3kdbf-52" target="0oEBU2UaBOYINvg3kdbf-16">
          <mxGeometry width="50" height="50" relative="1" as="geometry">
            <mxPoint x="-250" y="550" as="sourcePoint" />
            <mxPoint x="-200" y="500" as="targetPoint" />
          </mxGeometry>
        </mxCell>
        <mxCell id="0oEBU2UaBOYINvg3kdbf-54" value="" style="rounded=0;whiteSpace=wrap;html=1;" vertex="1" parent="1">
          <mxGeometry x="-345" y="540" width="30" height="30" as="geometry" />
        </mxCell>
        <mxCell id="0oEBU2UaBOYINvg3kdbf-55" value="" style="endArrow=none;html=1;rounded=0;endFill=0;" edge="1" parent="1" source="0oEBU2UaBOYINvg3kdbf-45" target="0oEBU2UaBOYINvg3kdbf-54">
          <mxGeometry width="50" height="50" relative="1" as="geometry">
            <mxPoint x="-440" y="580" as="sourcePoint" />
            <mxPoint x="-400" y="540" as="targetPoint" />
          </mxGeometry>
        </mxCell>
        <mxCell id="0oEBU2UaBOYINvg3kdbf-56" value="SSH" style="edgeLabel;html=1;align=center;verticalAlign=middle;resizable=0;points=[];" vertex="1" connectable="0" parent="0oEBU2UaBOYINvg3kdbf-55">
          <mxGeometry x="-0.1512" relative="1" as="geometry">
            <mxPoint x="-3" y="-2" as="offset" />
          </mxGeometry>
        </mxCell>
        <mxCell id="0oEBU2UaBOYINvg3kdbf-57" value="" style="rounded=0;whiteSpace=wrap;html=1;" vertex="1" parent="1">
          <mxGeometry x="-345" y="646.25" width="30" height="30" as="geometry" />
        </mxCell>
        <mxCell id="0oEBU2UaBOYINvg3kdbf-59" value="" style="rounded=0;whiteSpace=wrap;html=1;" vertex="1" parent="1">
          <mxGeometry x="-345" y="690" width="30" height="30" as="geometry" />
        </mxCell>
        <mxCell id="0oEBU2UaBOYINvg3kdbf-61" value="" style="endArrow=none;html=1;rounded=0;entryX=0;entryY=0.5;entryDx=0;entryDy=0;" edge="1" parent="1" source="0oEBU2UaBOYINvg3kdbf-59" target="0oEBU2UaBOYINvg3kdbf-19">
          <mxGeometry width="50" height="50" relative="1" as="geometry">
            <mxPoint x="-510" y="701" as="sourcePoint" />
            <mxPoint x="-335" y="714" as="targetPoint" />
          </mxGeometry>
        </mxCell>
        <mxCell id="0oEBU2UaBOYINvg3kdbf-62" value="" style="endArrow=none;html=1;rounded=0;entryX=0;entryY=0.5;entryDx=0;entryDy=0;" edge="1" parent="1" source="0oEBU2UaBOYINvg3kdbf-57" target="0oEBU2UaBOYINvg3kdbf-18">
          <mxGeometry width="50" height="50" relative="1" as="geometry">
            <mxPoint x="-510" y="692" as="sourcePoint" />
            <mxPoint x="-335" y="673" as="targetPoint" />
          </mxGeometry>
        </mxCell>
        <mxCell id="0oEBU2UaBOYINvg3kdbf-63" value="" style="endArrow=none;html=1;rounded=0;entryX=0;entryY=0.5;entryDx=0;entryDy=0;endFill=0;" edge="1" parent="1" source="0oEBU2UaBOYINvg3kdbf-54" target="0oEBU2UaBOYINvg3kdbf-17">
          <mxGeometry width="50" height="50" relative="1" as="geometry">
            <mxPoint x="-305" y="490" as="sourcePoint" />
            <mxPoint x="-100" y="494" as="targetPoint" />
          </mxGeometry>
        </mxCell>
        <mxCell id="0oEBU2UaBOYINvg3kdbf-66" value="&lt;div&gt;«Linux VM»&lt;/div&gt;&lt;div&gt;vm-pet1 (Worker Node)&lt;br&gt;&lt;/div&gt;" style="shape=cube;whiteSpace=wrap;html=1;boundedLbl=1;backgroundOutline=1;darkOpacity=0.05;darkOpacity2=0.1;verticalAlign=bottom;" vertex="1" parent="1">
          <mxGeometry x="260" y="540" width="680" height="280" as="geometry" />
        </mxCell>
        <mxCell id="0oEBU2UaBOYINvg3kdbf-67" value="&lt;div&gt;«Network Interface»&lt;/div&gt;&lt;div&gt;acctni1&lt;br&gt;&lt;/div&gt;" style="shape=cube;whiteSpace=wrap;html=1;boundedLbl=1;backgroundOutline=1;darkOpacity=0.05;darkOpacity2=0.1;verticalAlign=top;size=20;" vertex="1" parent="1">
          <mxGeometry x="170" y="732.5" width="110" height="87.5" as="geometry" />
        </mxCell>
        <mxCell id="0oEBU2UaBOYINvg3kdbf-101" value="Kubernetes Cluster (K3s)" style="html=1;whiteSpace=wrap;verticalAlign=top;fillColor=default;" vertex="1" parent="1">
          <mxGeometry x="330" y="305" width="520" height="435" as="geometry" />
        </mxCell>
        <mxCell id="0oEBU2UaBOYINvg3kdbf-68" value="«Virtual Disk»&lt;div&gt;OS&lt;/div&gt;" style="shape=cylinder3;whiteSpace=wrap;html=1;boundedLbl=1;backgroundOutline=1;size=6.695652173913061;" vertex="1" parent="1">
          <mxGeometry x="860" y="585" width="63" height="65" as="geometry" />
        </mxCell>
        <mxCell id="0oEBU2UaBOYINvg3kdbf-69" value="«Virtual Disk»&lt;div&gt;Data&lt;/div&gt;" style="shape=cylinder3;whiteSpace=wrap;html=1;boundedLbl=1;backgroundOutline=1;size=6.695652173913061;" vertex="1" parent="1">
          <mxGeometry x="860" y="655" width="63" height="65" as="geometry" />
        </mxCell>
        <mxCell id="0oEBU2UaBOYINvg3kdbf-74" value="Pod" style="swimlane;whiteSpace=wrap;html=1;" vertex="1" parent="1">
          <mxGeometry x="525" y="580" width="130" height="125" as="geometry" />
        </mxCell>
        <mxCell id="0oEBU2UaBOYINvg3kdbf-79" value="&lt;div&gt;«Queue»&lt;/div&gt;&lt;div&gt;RabbitMQ&lt;/div&gt;" style="html=1;whiteSpace=wrap;" vertex="1" parent="0oEBU2UaBOYINvg3kdbf-74">
          <mxGeometry x="20" y="51.25" width="90" height="50" as="geometry" />
        </mxCell>
        <mxCell id="0oEBU2UaBOYINvg3kdbf-75" value="Pod" style="swimlane;whiteSpace=wrap;html=1;" vertex="1" parent="1">
          <mxGeometry x="350" y="335" width="130" height="125" as="geometry" />
        </mxCell>
        <mxCell id="0oEBU2UaBOYINvg3kdbf-77" value="&lt;div&gt;«Artifact»&lt;/div&gt;&lt;div&gt;Produktservice&lt;/div&gt;" style="html=1;whiteSpace=wrap;" vertex="1" parent="0oEBU2UaBOYINvg3kdbf-75">
          <mxGeometry x="15" y="52.5" width="100" height="50" as="geometry" />
        </mxCell>
        <mxCell id="0oEBU2UaBOYINvg3kdbf-80" value="" style="endArrow=none;html=1;rounded=0;" edge="1" parent="1" source="0oEBU2UaBOYINvg3kdbf-77" target="0oEBU2UaBOYINvg3kdbf-73">
          <mxGeometry width="50" height="50" relative="1" as="geometry">
            <mxPoint x="610" y="570" as="sourcePoint" />
            <mxPoint x="660" y="520" as="targetPoint" />
          </mxGeometry>
        </mxCell>
        <mxCell id="0oEBU2UaBOYINvg3kdbf-94" value="HTTP" style="edgeLabel;html=1;align=center;verticalAlign=middle;resizable=0;points=[];" vertex="1" connectable="0" parent="0oEBU2UaBOYINvg3kdbf-80">
          <mxGeometry x="-0.7095" relative="1" as="geometry">
            <mxPoint y="46" as="offset" />
          </mxGeometry>
        </mxCell>
        <mxCell id="0oEBU2UaBOYINvg3kdbf-81" value="" style="endArrow=none;html=1;rounded=0;" edge="1" parent="1" source="0oEBU2UaBOYINvg3kdbf-79" target="0oEBU2UaBOYINvg3kdbf-76">
          <mxGeometry width="50" height="50" relative="1" as="geometry">
            <mxPoint x="610" y="570" as="sourcePoint" />
            <mxPoint x="660" y="520" as="targetPoint" />
          </mxGeometry>
        </mxCell>
        <mxCell id="0oEBU2UaBOYINvg3kdbf-96" value="AMQP" style="edgeLabel;html=1;align=center;verticalAlign=middle;resizable=0;points=[];" vertex="1" connectable="0" parent="0oEBU2UaBOYINvg3kdbf-81">
          <mxGeometry x="-0.2764" y="1" relative="1" as="geometry">
            <mxPoint x="15" as="offset" />
          </mxGeometry>
        </mxCell>
        <mxCell id="0oEBU2UaBOYINvg3kdbf-84" value="" style="endArrow=none;html=1;rounded=0;" edge="1" parent="1" source="0oEBU2UaBOYINvg3kdbf-78" target="0oEBU2UaBOYINvg3kdbf-73">
          <mxGeometry width="50" height="50" relative="1" as="geometry">
            <mxPoint x="580" y="676" as="sourcePoint" />
            <mxPoint x="560" y="676" as="targetPoint" />
          </mxGeometry>
        </mxCell>
        <mxCell id="0oEBU2UaBOYINvg3kdbf-99" value="mongodb" style="edgeLabel;html=1;align=center;verticalAlign=middle;resizable=0;points=[];rotation=0;" vertex="1" connectable="0" parent="0oEBU2UaBOYINvg3kdbf-84">
          <mxGeometry x="0.1132" y="1" relative="1" as="geometry">
            <mxPoint x="28" y="-23" as="offset" />
          </mxGeometry>
        </mxCell>
        <mxCell id="0oEBU2UaBOYINvg3kdbf-85" value="" style="endArrow=none;html=1;rounded=0;" edge="1" parent="1" source="0oEBU2UaBOYINvg3kdbf-76" target="0oEBU2UaBOYINvg3kdbf-78">
          <mxGeometry width="50" height="50" relative="1" as="geometry">
            <mxPoint x="690" y="676" as="sourcePoint" />
            <mxPoint x="670" y="676" as="targetPoint" />
          </mxGeometry>
        </mxCell>
        <mxCell id="0oEBU2UaBOYINvg3kdbf-95" value="mongodb" style="edgeLabel;html=1;align=center;verticalAlign=middle;resizable=0;points=[];" vertex="1" connectable="0" parent="0oEBU2UaBOYINvg3kdbf-85">
          <mxGeometry x="-0.6594" y="1" relative="1" as="geometry">
            <mxPoint x="-27" y="-67" as="offset" />
          </mxGeometry>
        </mxCell>
        <mxCell id="0oEBU2UaBOYINvg3kdbf-90" value="Pod" style="swimlane;whiteSpace=wrap;html=1;" vertex="1" parent="1">
          <mxGeometry x="700" y="580" width="130" height="125" as="geometry" />
        </mxCell>
        <mxCell id="0oEBU2UaBOYINvg3kdbf-76" value="&lt;div&gt;«Artifact»&lt;/div&gt;&lt;div&gt;Lieferantenservice&lt;/div&gt;" style="html=1;whiteSpace=wrap;" vertex="1" parent="0oEBU2UaBOYINvg3kdbf-90">
          <mxGeometry x="10" y="51.25" width="110" height="50" as="geometry" />
        </mxCell>
        <mxCell id="0oEBU2UaBOYINvg3kdbf-93" value="Pod" style="swimlane;whiteSpace=wrap;html=1;" vertex="1" parent="1">
          <mxGeometry x="520" y="335" width="130" height="125" as="geometry" />
        </mxCell>
        <mxCell id="0oEBU2UaBOYINvg3kdbf-78" value="&lt;div&gt;«Database»&lt;/div&gt;&lt;div&gt;MongoDB&lt;br&gt;&lt;/div&gt;" style="shape=cylinder3;whiteSpace=wrap;html=1;boundedLbl=1;backgroundOutline=1;size=6.370370370370324;" vertex="1" parent="0oEBU2UaBOYINvg3kdbf-93">
          <mxGeometry x="25" y="37.5" width="80" height="80" as="geometry" />
        </mxCell>
        <mxCell id="0oEBU2UaBOYINvg3kdbf-82" value="" style="endArrow=none;html=1;rounded=0;" edge="1" parent="1" source="0oEBU2UaBOYINvg3kdbf-73" target="0oEBU2UaBOYINvg3kdbf-79">
          <mxGeometry width="50" height="50" relative="1" as="geometry">
            <mxPoint x="610" y="570" as="sourcePoint" />
            <mxPoint x="660" y="520" as="targetPoint" />
          </mxGeometry>
        </mxCell>
        <mxCell id="0oEBU2UaBOYINvg3kdbf-98" value="AMQP" style="edgeLabel;html=1;align=center;verticalAlign=middle;resizable=0;points=[];" vertex="1" connectable="0" parent="0oEBU2UaBOYINvg3kdbf-82">
          <mxGeometry x="0.0574" relative="1" as="geometry">
            <mxPoint x="-5" y="-1" as="offset" />
          </mxGeometry>
        </mxCell>
        <mxCell id="0oEBU2UaBOYINvg3kdbf-102" value="" style="endArrow=none;html=1;rounded=0;" edge="1" parent="1" source="0oEBU2UaBOYINvg3kdbf-77" target="0oEBU2UaBOYINvg3kdbf-78">
          <mxGeometry width="50" height="50" relative="1" as="geometry">
            <mxPoint x="501" y="443" as="sourcePoint" />
            <mxPoint x="738" y="634" as="targetPoint" />
          </mxGeometry>
        </mxCell>
        <mxCell id="0oEBU2UaBOYINvg3kdbf-103" value="mongodb" style="edgeLabel;html=1;align=center;verticalAlign=middle;resizable=0;points=[];" vertex="1" connectable="0" parent="0oEBU2UaBOYINvg3kdbf-102">
          <mxGeometry x="-0.6603" y="-2" relative="1" as="geometry">
            <mxPoint x="22" y="-2" as="offset" />
          </mxGeometry>
        </mxCell>
        <mxCell id="0oEBU2UaBOYINvg3kdbf-92" value="Pod" style="swimlane;whiteSpace=wrap;html=1;" vertex="1" parent="1">
          <mxGeometry x="350" y="580" width="130" height="125" as="geometry" />
        </mxCell>
        <mxCell id="0oEBU2UaBOYINvg3kdbf-73" value="&lt;div&gt;«Artifact»&lt;/div&gt;&lt;div&gt;Bestellservice&lt;/div&gt;" style="html=1;whiteSpace=wrap;" vertex="1" parent="0oEBU2UaBOYINvg3kdbf-92">
          <mxGeometry x="20" y="52.5" width="90" height="50" as="geometry" />
        </mxCell>
        <mxCell id="0oEBU2UaBOYINvg3kdbf-104" value="" style="endArrow=none;html=1;rounded=0;exitX=1;exitY=0.5;exitDx=0;exitDy=0;" edge="1" parent="1" source="0oEBU2UaBOYINvg3kdbf-19" target="0oEBU2UaBOYINvg3kdbf-73">
          <mxGeometry width="50" height="50" relative="1" as="geometry">
            <mxPoint x="50" y="640" as="sourcePoint" />
            <mxPoint x="100" y="590" as="targetPoint" />
          </mxGeometry>
        </mxCell>
        <mxCell id="VYizSOrQ5l4uzgj4have-10" value="HTTP" style="edgeLabel;html=1;align=center;verticalAlign=middle;resizable=0;points=[];" connectable="0" vertex="1" parent="0oEBU2UaBOYINvg3kdbf-104">
          <mxGeometry x="-0.0963" y="1" relative="1" as="geometry">
            <mxPoint as="offset" />
          </mxGeometry>
        </mxCell>
        <mxCell id="0oEBU2UaBOYINvg3kdbf-105" value="" style="endArrow=none;html=1;rounded=0;exitX=1;exitY=0.5;exitDx=0;exitDy=0;" edge="1" parent="1" source="0oEBU2UaBOYINvg3kdbf-18" target="0oEBU2UaBOYINvg3kdbf-77">
          <mxGeometry width="50" height="50" relative="1" as="geometry">
            <mxPoint x="-365" y="670" as="sourcePoint" />
            <mxPoint x="-160" y="652" as="targetPoint" />
          </mxGeometry>
        </mxCell>
        <mxCell id="VYizSOrQ5l4uzgj4have-11" value="HTTP" style="edgeLabel;html=1;align=center;verticalAlign=middle;resizable=0;points=[];" connectable="0" vertex="1" parent="0oEBU2UaBOYINvg3kdbf-105">
          <mxGeometry x="-0.1701" relative="1" as="geometry">
            <mxPoint as="offset" />
          </mxGeometry>
        </mxCell>
        <mxCell id="0oEBU2UaBOYINvg3kdbf-106" value="Pod" style="swimlane;whiteSpace=wrap;html=1;" vertex="1" parent="1">
          <mxGeometry x="670" y="335" width="130" height="125" as="geometry" />
        </mxCell>
        <mxCell id="0oEBU2UaBOYINvg3kdbf-113" value="" style="rounded=0;whiteSpace=wrap;html=1;" vertex="1" parent="0oEBU2UaBOYINvg3kdbf-106">
          <mxGeometry y="22.5" width="130" height="103" as="geometry" />
        </mxCell>
        <mxCell id="0oEBU2UaBOYINvg3kdbf-108" value="&lt;div&gt;«Service»&lt;/div&gt;&lt;div&gt;Kubernetes Service&lt;br&gt;&lt;/div&gt;" style="html=1;whiteSpace=wrap;" vertex="1" parent="0oEBU2UaBOYINvg3kdbf-106">
          <mxGeometry x="15" y="45" width="100" height="50" as="geometry" />
        </mxCell>
        <mxCell id="0oEBU2UaBOYINvg3kdbf-114" value="Pod" style="swimlane;whiteSpace=wrap;html=1;" vertex="1" parent="1">
          <mxGeometry x="680" y="355" width="130" height="125" as="geometry" />
        </mxCell>
        <mxCell id="0oEBU2UaBOYINvg3kdbf-115" value="" style="rounded=0;whiteSpace=wrap;html=1;" vertex="1" parent="0oEBU2UaBOYINvg3kdbf-114">
          <mxGeometry y="22.5" width="130" height="103" as="geometry" />
        </mxCell>
        <mxCell id="0oEBU2UaBOYINvg3kdbf-116" value="&lt;div&gt;«Service»&lt;/div&gt;&lt;div&gt;Kubernetes Service&lt;br&gt;&lt;/div&gt;" style="html=1;whiteSpace=wrap;" vertex="1" parent="0oEBU2UaBOYINvg3kdbf-114">
          <mxGeometry x="15" y="45" width="100" height="50" as="geometry" />
        </mxCell>
        <mxCell id="0oEBU2UaBOYINvg3kdbf-117" value="Pod" style="swimlane;whiteSpace=wrap;html=1;" vertex="1" parent="1">
          <mxGeometry x="690" y="375" width="130" height="125" as="geometry" />
        </mxCell>
        <mxCell id="0oEBU2UaBOYINvg3kdbf-118" value="" style="rounded=0;whiteSpace=wrap;html=1;" vertex="1" parent="0oEBU2UaBOYINvg3kdbf-117">
          <mxGeometry y="22.5" width="130" height="103" as="geometry" />
        </mxCell>
        <mxCell id="0oEBU2UaBOYINvg3kdbf-119" value="&lt;div&gt;«Service»&lt;/div&gt;&lt;div&gt;Kubernetes Service&lt;br&gt;&lt;/div&gt;" style="html=1;whiteSpace=wrap;" vertex="1" parent="0oEBU2UaBOYINvg3kdbf-117">
          <mxGeometry x="15" y="45" width="100" height="50" as="geometry" />
        </mxCell>
        <mxCell id="0oEBU2UaBOYINvg3kdbf-120" value="" style="endArrow=none;html=1;rounded=0;exitX=1;exitY=0.5;exitDx=0;exitDy=0;endFill=0;" edge="1" parent="1" source="0oEBU2UaBOYINvg3kdbf-16" target="0oEBU2UaBOYINvg3kdbf-12">
          <mxGeometry width="50" height="50" relative="1" as="geometry">
            <mxPoint x="20" y="540" as="sourcePoint" />
            <mxPoint x="70" y="490" as="targetPoint" />
          </mxGeometry>
        </mxCell>
        <mxCell id="VYizSOrQ5l4uzgj4have-8" value="SSH" style="edgeLabel;html=1;align=center;verticalAlign=middle;resizable=0;points=[];" connectable="0" vertex="1" parent="0oEBU2UaBOYINvg3kdbf-120">
          <mxGeometry x="0.3305" y="-2" relative="1" as="geometry">
            <mxPoint y="-1" as="offset" />
          </mxGeometry>
        </mxCell>
        <mxCell id="0oEBU2UaBOYINvg3kdbf-121" value="" style="endArrow=none;html=1;rounded=0;exitX=1;exitY=0.5;exitDx=0;exitDy=0;endFill=0;" edge="1" parent="1" source="0oEBU2UaBOYINvg3kdbf-17" target="0oEBU2UaBOYINvg3kdbf-66">
          <mxGeometry width="50" height="50" relative="1" as="geometry">
            <mxPoint x="-50" y="486" as="sourcePoint" />
            <mxPoint x="270" y="433" as="targetPoint" />
          </mxGeometry>
        </mxCell>
        <mxCell id="VYizSOrQ5l4uzgj4have-9" value="SSH" style="edgeLabel;html=1;align=center;verticalAlign=middle;resizable=0;points=[];" connectable="0" vertex="1" parent="0oEBU2UaBOYINvg3kdbf-121">
          <mxGeometry x="0.3296" y="2" relative="1" as="geometry">
            <mxPoint x="1" as="offset" />
          </mxGeometry>
        </mxCell>
        <mxCell id="0oEBU2UaBOYINvg3kdbf-122" value="&lt;div&gt;«Network»&lt;/div&gt;&lt;div&gt;Virtual Network&lt;/div&gt;&lt;div&gt;+ Subnet&lt;br&gt;[10.0.2.0/24]&lt;br&gt;&lt;/div&gt;" style="rounded=0;whiteSpace=wrap;html=1;" vertex="1" parent="1">
          <mxGeometry x="330" y="120" width="140" height="70" as="geometry" />
        </mxCell>
        <mxCell id="0oEBU2UaBOYINvg3kdbf-123" value="" style="endArrow=none;dashed=1;html=1;rounded=0;entryX=1;entryY=0.5;entryDx=0;entryDy=0;exitX=0.513;exitY=0.113;exitDx=0;exitDy=0;exitPerimeter=0;" edge="1" parent="1" source="0oEBU2UaBOYINvg3kdbf-15" target="0oEBU2UaBOYINvg3kdbf-122">
          <mxGeometry width="50" height="50" relative="1" as="geometry">
            <mxPoint x="670" y="510" as="sourcePoint" />
            <mxPoint x="720" y="460" as="targetPoint" />
          </mxGeometry>
        </mxCell>
        <mxCell id="0oEBU2UaBOYINvg3kdbf-129" value="" style="endArrow=none;html=1;rounded=0;" edge="1" parent="1" source="0oEBU2UaBOYINvg3kdbf-127" target="0oEBU2UaBOYINvg3kdbf-12">
          <mxGeometry width="50" height="50" relative="1" as="geometry">
            <mxPoint x="170" y="410" as="sourcePoint" />
            <mxPoint x="220" y="360" as="targetPoint" />
          </mxGeometry>
        </mxCell>
        <mxCell id="0oEBU2UaBOYINvg3kdbf-130" value="TCP" style="edgeLabel;html=1;align=center;verticalAlign=middle;resizable=0;points=[];" vertex="1" connectable="0" parent="0oEBU2UaBOYINvg3kdbf-129">
          <mxGeometry x="-0.0071" y="-1" relative="1" as="geometry">
            <mxPoint y="-2" as="offset" />
          </mxGeometry>
        </mxCell>
        <mxCell id="0oEBU2UaBOYINvg3kdbf-131" value="" style="endArrow=none;html=1;rounded=0;entryX=0.001;entryY=0.162;entryDx=0;entryDy=0;entryPerimeter=0;exitX=0;exitY=0;exitDx=110;exitDy=45;exitPerimeter=0;" edge="1" parent="1" source="0oEBU2UaBOYINvg3kdbf-127" target="0oEBU2UaBOYINvg3kdbf-66">
          <mxGeometry width="50" height="50" relative="1" as="geometry">
            <mxPoint x="-10" y="375" as="sourcePoint" />
            <mxPoint x="270" y="376" as="targetPoint" />
          </mxGeometry>
        </mxCell>
        <mxCell id="0oEBU2UaBOYINvg3kdbf-132" value="TCP" style="edgeLabel;html=1;align=center;verticalAlign=middle;resizable=0;points=[];" vertex="1" connectable="0" parent="0oEBU2UaBOYINvg3kdbf-131">
          <mxGeometry x="-0.0071" y="-1" relative="1" as="geometry">
            <mxPoint y="-2" as="offset" />
          </mxGeometry>
        </mxCell>
        <mxCell id="0oEBU2UaBOYINvg3kdbf-134" value="&lt;div&gt;«Backend Address Pool»&lt;/div&gt;pool0" style="shape=cube;whiteSpace=wrap;html=1;boundedLbl=1;backgroundOutline=1;darkOpacity=0.05;darkOpacity2=0.1;verticalAlign=top;" vertex="1" parent="1">
          <mxGeometry x="70" y="222.5" width="120" height="87.5" as="geometry" />
        </mxCell>
        <mxCell id="0oEBU2UaBOYINvg3kdbf-135" value="&lt;div&gt;«Backend Address Pool»&lt;/div&gt;pool1" style="shape=cube;whiteSpace=wrap;html=1;boundedLbl=1;backgroundOutline=1;darkOpacity=0.05;darkOpacity2=0.1;verticalAlign=top;" vertex="1" parent="1">
          <mxGeometry x="80" y="732.5" width="110" height="87.5" as="geometry" />
        </mxCell>
        <mxCell id="VYizSOrQ5l4uzgj4have-2" value="" style="endArrow=none;html=1;rounded=0;" edge="1" parent="1" source="0oEBU2UaBOYINvg3kdbf-9" target="0oEBU2UaBOYINvg3kdbf-134">
          <mxGeometry width="50" height="50" relative="1" as="geometry">
            <mxPoint x="100" y="430" as="sourcePoint" />
            <mxPoint x="150" y="380" as="targetPoint" />
          </mxGeometry>
        </mxCell>
        <mxCell id="VYizSOrQ5l4uzgj4have-6" value="Configuration" style="edgeLabel;html=1;align=center;verticalAlign=middle;resizable=0;points=[];" connectable="0" vertex="1" parent="VYizSOrQ5l4uzgj4have-2">
          <mxGeometry x="0.5438" y="1" relative="1" as="geometry">
            <mxPoint as="offset" />
          </mxGeometry>
        </mxCell>
        <mxCell id="VYizSOrQ5l4uzgj4have-5" value="" style="endArrow=none;html=1;rounded=0;exitX=1;exitY=0.94;exitDx=0;exitDy=0;exitPerimeter=0;" edge="1" parent="1" source="0oEBU2UaBOYINvg3kdbf-9" target="0oEBU2UaBOYINvg3kdbf-135">
          <mxGeometry width="50" height="50" relative="1" as="geometry">
            <mxPoint x="140" y="785" as="sourcePoint" />
            <mxPoint x="180" y="786" as="targetPoint" />
          </mxGeometry>
        </mxCell>
        <mxCell id="VYizSOrQ5l4uzgj4have-7" value="Configuration" style="edgeLabel;html=1;align=center;verticalAlign=middle;resizable=0;points=[];" connectable="0" vertex="1" parent="VYizSOrQ5l4uzgj4have-5">
          <mxGeometry x="0.0586" y="-1" relative="1" as="geometry">
            <mxPoint as="offset" />
          </mxGeometry>
        </mxCell>
        <mxCell id="VYizSOrQ5l4uzgj4have-21" value="" style="group" connectable="0" vertex="1" parent="1">
          <mxGeometry x="-720" y="870" width="226.5" height="50" as="geometry" />
        </mxCell>
        <mxCell id="VYizSOrQ5l4uzgj4have-12" value="&lt;div&gt;&lt;b&gt;Legende&lt;/b&gt;&lt;br&gt;&lt;/div&gt;" style="rounded=0;whiteSpace=wrap;html=1;align=left;verticalAlign=top;" vertex="1" parent="VYizSOrQ5l4uzgj4have-21">
          <mxGeometry width="226.5" height="50" as="geometry" />
        </mxCell>
        <mxCell id="VYizSOrQ5l4uzgj4have-16" value="" style="endArrow=none;html=1;rounded=0;endFill=0;" edge="1" parent="VYizSOrQ5l4uzgj4have-21">
          <mxGeometry width="50" height="50" relative="1" as="geometry">
            <mxPoint x="38.25" y="40" as="sourcePoint" />
            <mxPoint x="188.25" y="40.24000000000001" as="targetPoint" />
          </mxGeometry>
        </mxCell>
        <mxCell id="VYizSOrQ5l4uzgj4have-18" value="Kommunikationskanal" style="edgeLabel;html=1;align=center;verticalAlign=middle;resizable=0;points=[];" connectable="0" vertex="1" parent="VYizSOrQ5l4uzgj4have-16">
          <mxGeometry x="0.0421" y="3" relative="1" as="geometry">
            <mxPoint x="-3" y="-7" as="offset" />
          </mxGeometry>
        </mxCell>
      </root>
    </mxGraphModel>
  </diagram>
</mxfile>
